<svg width="23" height="22" viewBox="0 0 23 22" fill="none" xmlns="http://www.w3.org/2000/svg">
<path d="M3.27762 10.9424C2.3296 9.2893 1.87185 7.93948 1.59584 6.57121C1.18762 4.54758 2.12181 2.57081 3.66938 1.30947C4.32345 0.776381 5.07323 0.958521 5.46 1.6524L6.33318 3.21891C7.02529 4.46057 7.37134 5.08139 7.3027 5.73959C7.23407 6.39779 6.76737 6.93386 5.83397 8.00601L3.27762 10.9424ZM3.27762 10.9424C5.19651 14.2883 8.20784 17.3013 11.5576 19.2224M11.5576 19.2224C13.2107 20.1704 14.5605 20.6282 15.9288 20.9042C17.9524 21.3124 19.9292 20.3782 21.1905 18.8306C21.7236 18.1766 21.5415 17.4268 20.8476 17.04L19.2811 16.1668C18.0394 15.4747 17.4186 15.1287 16.7604 15.1973C16.1022 15.2659 15.5661 15.7326 14.494 16.666L11.5576 19.2224Z" stroke="#353131" stroke-width="1.5" stroke-linejoin="round"/>
</svg>
