<svg width="20" height="20" viewBox="0 0 20 20" fill="none" xmlns="http://www.w3.org/2000/svg">
<path d="M9.922 2.79004C14.6963 1.16245 17.0834 0.348663 18.3674 1.63261C19.6513 2.91656 18.8375 5.30371 17.21 10.078L16.1016 13.3292C14.8517 16.9958 14.2267 18.8291 13.1964 18.9808C12.9195 19.0216 12.6328 18.9971 12.3587 18.9091C11.3395 18.5819 10.8007 16.6489 9.7231 12.783C9.4841 11.9255 9.3646 11.4967 9.0924 11.1692C9.0134 11.0742 8.9258 10.9866 8.8308 10.9076C8.5033 10.6354 8.0745 10.5159 7.21705 10.2769C3.35111 9.1993 1.41814 8.6605 1.0909 7.64127C1.00292 7.36724 0.978367 7.08053 1.01916 6.80355C1.17088 5.77332 3.00419 5.14834 6.6708 3.89838L9.922 2.79004Z" stroke="white" stroke-width="1.5"/>
</svg>
